<svg width="512" height="512" viewBox="0 0 512 512" fill="none" xmlns="http://www.w3.org/2000/svg">
  <!-- Background gradient -->
  <defs>
    <linearGradient id="bgGradient" x1="0%" y1="0%" x2="100%" y2="100%">
      <stop offset="0%" style="stop-color:#1e40af;stop-opacity:1" />
      <stop offset="50%" style="stop-color:#3b82f6;stop-opacity:1" />
      <stop offset="100%" style="stop-color:#8b5cf6;stop-opacity:1" />
    </linearGradient>
    <linearGradient id="bookGradient" x1="0%" y1="0%" x2="100%" y2="100%">
      <stop offset="0%" style="stop-color:#fbbf24;stop-opacity:1" />
      <stop offset="100%" style="stop-color:#f59e0b;stop-opacity:1" />
    </linearGradient>
    <linearGradient id="textGradient" x1="0%" y1="0%" x2="100%" y2="100%">
      <stop offset="0%" style="stop-color:#ffffff;stop-opacity:1" />
      <stop offset="100%" style="stop-color:#e5e7eb;stop-opacity:1" />
    </linearGradient>
    <filter id="shadow" x="-50%" y="-50%" width="200%" height="200%">
      <feDropShadow dx="0" dy="8" stdDeviation="16" flood-color="#000000" flood-opacity="0.3"/>
    </filter>
  </defs>
  
  <!-- Background circle -->
  <circle cx="256" cy="256" r="240" fill="url(#bgGradient)" filter="url(#shadow)"/>
  
  <!-- Torah scroll/book -->
  <g transform="translate(256, 200)">
    <!-- Book base -->
    <rect x="-80" y="-40" width="160" height="100" rx="8" fill="url(#bookGradient)" filter="url(#shadow)"/>
    <rect x="-75" y="-35" width="150" height="90" rx="6" fill="#fcd34d"/>
    
    <!-- Book pages -->
    <rect x="-70" y="-30" width="140" height="80" rx="4" fill="#ffffff"/>
    <rect x="-65" y="-25" width="130" height="70" rx="3" fill="#f9fafb"/>
    
    <!-- Hebrew text lines -->
    <g fill="#374151" opacity="0.8">
      <rect x="-55" y="-15" width="110" height="3" rx="1.5"/>
      <rect x="-55" y="-5" width="90" height="3" rx="1.5"/>
      <rect x="-55" y="5" width="100" height="3" rx="1.5"/>
      <rect x="-55" y="15" width="85" height="3" rx="1.5"/>
      <rect x="-55" y="25" width="95" height="3" rx="1.5"/>
    </g>
    
    <!-- Star of David -->
    <g transform="translate(0, -80)" fill="url(#textGradient)" filter="url(#shadow)">
      <polygon points="0,-20 17.32,10 -17.32,10" fill="url(#textGradient)"/>
      <polygon points="0,20 -17.32,-10 17.32,-10" fill="url(#textGradient)"/>
    </g>
  </g>
  
  <!-- Hebrew letters ת (Tav) and ל (Lamed) stylized -->
  <g transform="translate(256, 350)" fill="url(#textGradient)" filter="url(#shadow)">
    <!-- Stylized Hebrew letters representing Torah Learning -->
    <path d="M-40,-20 L-40,20 M-50,-20 L-30,-20 M-40,-20 L-40,20" stroke="url(#textGradient)" stroke-width="6" fill="none" stroke-linecap="round"/>
    <path d="M10,-20 L10,20 M10,20 L30,0" stroke="url(#textGradient)" stroke-width="6" fill="none" stroke-linecap="round"/>
  </g>
  
  <!-- Decorative elements -->
  <g opacity="0.3">
    <circle cx="120" cy="120" r="4" fill="#fbbf24"/>
    <circle cx="392" cy="140" r="6" fill="#8b5cf6"/>
    <circle cx="100" cy="380" r="5" fill="#3b82f6"/>
    <circle cx="420" cy="360" r="4" fill="#fbbf24"/>
  </g>
</svg>