<svg width="512" height="512" viewBox="0 0 512 512" fill="none" xmlns="http://www.w3.org/2000/svg">
  <!-- Background gradient -->
  <defs>
    <linearGradient id="bgGradient" x1="0%" y1="0%" x2="100%" y2="100%">
      <stop offset="0%" style="stop-color:#1e3a8a;stop-opacity:1" />
      <stop offset="50%" style="stop-color:#3b82f6;stop-opacity:1" />
      <stop offset="100%" style="stop-color:#8b5cf6;stop-opacity:1" />
    </linearGradient>
    <linearGradient id="bookGradient" x1="0%" y1="0%" x2="100%" y2="100%">
      <stop offset="0%" style="stop-color:#fbbf24;stop-opacity:1" />
      <stop offset="100%" style="stop-color:#f59e0b;stop-opacity:1" />
    </linearGradient>
    <linearGradient id="textGradient" x1="0%" y1="0%" x2="100%" y2="100%">
      <stop offset="0%" style="stop-color:#ffffff;stop-opacity:1" />
      <stop offset="100%" style="stop-color:#e5e7eb;stop-opacity:1" />
    </linearGradient>
    <filter id="shadow" x="-50%" y="-50%" width="200%" height="200%">
      <feDropShadow dx="0" dy="8" stdDeviation="16" flood-color="#000000" flood-opacity="0.3"/>
    </filter>
  </defs>
  
  <!-- Background circle -->
  <circle cx="256" cy="256" r="240" fill="url(#bgGradient)" filter="url(#shadow)"/>
  
  <!-- Inner glow -->
  <circle cx="256" cy="256" r="200" fill="none" stroke="rgba(255,255,255,0.2)" stroke-width="2"/>
  
  <!-- Book base -->
  <rect x="180" y="180" width="152" height="200" rx="8" fill="url(#bookGradient)" filter="url(#shadow)"/>
  
  <!-- Book pages -->
  <rect x="190" y="190" width="132" height="180" rx="4" fill="#ffffff"/>
  <rect x="195" y="195" width="122" height="170" rx="2" fill="#f8fafc"/>
  
  <!-- Hebrew text lines (stylized) -->
  <rect x="205" y="210" width="80" height="3" rx="1.5" fill="#1e40af"/>
  <rect x="225" y="220" width="60" height="3" rx="1.5" fill="#1e40af"/>
  <rect x="205" y="230" width="90" height="3" rx="1.5" fill="#1e40af"/>
  <rect x="215" y="240" width="70" height="3" rx="1.5" fill="#1e40af"/>
  
  <!-- Hebrew letter ב (stylized) -->
  <g transform="translate(205, 260)">
    <rect x="0" y="0" width="4" height="40" rx="2" fill="#3b82f6"/>
    <rect x="0" y="0" width="25" height="4" rx="2" fill="#3b82f6"/>
    <rect x="0" y="18" width="20" height="4" rx="2" fill="#3b82f6"/>
    <rect x="0" y="36" width="25" height="4" rx="2" fill="#3b82f6"/>
    <rect x="21" y="4" width="4" height="14" rx="2" fill="#3b82f6"/>
    <rect x="16" y="22" width="4" height="14" rx="2" fill="#3b82f6"/>
  </g>
  
  <!-- Hebrew letter ר (stylized) -->
  <g transform="translate(240, 260)">
    <rect x="0" y="0" width="4" height="40" rx="2" fill="#8b5cf6"/>
    <rect x="0" y="0" width="20" height="4" rx="2" fill="#8b5cf6"/>
    <rect x="16" y="4" width="4" height="16" rx="2" fill="#8b5cf6"/>
  </g>
  
  <!-- Hebrew letter א (stylized) -->
  <g transform="translate(270, 260)">
    <rect x="8" y="0" width="4" height="20" rx="2" fill="#10b981"/>
    <rect x="0" y="20" width="4" height="20" rx="2" fill="#10b981"/>
    <rect x="16" y="20" width="4" height="20" rx="2" fill="#10b981"/>
    <rect x="4" y="18" width="12" height="4" rx="2" fill="#10b981"/>
  </g>
  
  <!-- Decorative elements -->
  <circle cx="150" cy="150" r="3" fill="rgba(255,255,255,0.6)"/>
  <circle cx="370" cy="160" r="2" fill="rgba(255,255,255,0.4)"/>
  <circle cx="140" cy="350" r="2.5" fill="rgba(255,255,255,0.5)"/>
  <circle cx="380" cy="340" r="2" fill="rgba(255,255,255,0.3)"/>
  
  <!-- Crown element (representing learning/wisdom) -->
  <g transform="translate(320, 140)">
    <polygon points="0,20 8,0 16,10 24,0 32,20 16,15" fill="#fbbf24"/>
    <circle cx="8" cy="5" r="2" fill="#f59e0b"/>
    <circle cx="16" cy="2" r="2.5" fill="#f59e0b"/>
    <circle cx="24" cy="5" r="2" fill="#f59e0b"/>
  </g>
</svg>